<svg width="960" height="400" viewBox="0 0 960 400" fill="none" xmlns="http://www.w3.org/2000/svg">
<circle cx="15.5" cy="14.5" r="0.5" fill="white"/>
<circle cx="176.5" cy="282.5" r="0.5" fill="white"/>
<circle cx="187.5" cy="27.5" r="0.5" fill="white"/>
<circle cx="250.5" cy="80.5" r="0.5" fill="white"/>
<circle cx="10.5" cy="100.5" r="0.5" fill="white"/>
<circle cx="620.5" cy="159.5" r="0.5" fill="white"/>
<circle cx="188.5" cy="135.5" r="0.5" fill="white"/>
<circle cx="798.5" cy="194.5" r="0.5" fill="white"/>
<circle cx="928.5" cy="89.5" r="0.5" fill="white"/>
<circle cx="783.5" cy="347.5" r="0.5" fill="white"/>
<circle cx="114.5" cy="214.5" r="0.5" fill="white"/>
<circle cx="709.5" cy="380.5" r="0.5" fill="white"/>
<circle cx="355.5" cy="198.5" r="0.5" fill="white"/>
<circle cx="359.5" cy="51.5" r="0.5" fill="white"/>
<circle cx="611.5" cy="43.5" r="0.5" fill="white"/>
<circle cx="503.5" cy="42.5" r="0.5" fill="white"/>
<circle cx="482.5" cy="219.5" r="0.5" fill="white"/>
<circle cx="598.5" cy="287.5" r="0.5" fill="white"/>
<circle cx="576.5" cy="180.5" r="0.5" fill="white"/>
<circle cx="4.5" cy="324.5" r="0.5" fill="white"/>
<circle cx="61.5" cy="379.5" r="0.5" fill="white"/>
<circle cx="781.5" cy="275.5" r="0.5" fill="white"/>
<circle cx="844.5" cy="18.5" r="0.5" fill="white"/>
<circle cx="187.5" cy="348.5" r="0.5" fill="white"/>
<circle cx="519.5" cy="395.5" r="0.5" fill="white"/>
</svg>
